<?xml version="1.0" encoding="UTF-8" standalone="no"?><!DOCTYPE svg PUBLIC "-//W3C//DTD SVG 1.1//EN" "http://www.w3.org/Graphics/SVG/1.1/DTD/svg11.dtd"><svg width="100%" height="100%" viewBox="0 0 300 300" version="1.1" xmlns="http://www.w3.org/2000/svg" xmlns:xlink="http://www.w3.org/1999/xlink" xml:space="preserve" xmlns:serif="http://www.serif.com/" style="fill-rule:evenodd;clip-rule:evenodd;stroke-linejoin:round;stroke-miterlimit:2;"><g id="Page-1"></g><rect id="ArtBoard2" x="0" y="0" width="300" height="300" style="fill:none;"/><clipPath id="_clip1"><rect id="ArtBoard21" serif:id="ArtBoard2" x="0" y="0" width="300" height="300"/></clipPath><g clip-path="url(#_clip1)"><g id="ArtBoard1"><rect x="0" y="0" width="300.001" height="299.999" style="fill:none;"/></g><path id="icon" d="M60.895,187.304l25.984,-167.126c0.395,-2.547 2.366,-4.555 4.894,-4.986c2.529,-0.432 5.049,0.81 6.258,3.083l27.937,52.438l-65.073,116.591Zm184.516,40.557l-24.732,-153.807c-0.374,-2.209 -1.942,-4.024 -4.066,-4.705c-2.124,-0.682 -4.449,-0.115 -6.027,1.468l-155.997,157.044l86.317,48.647c5.42,3.042 12.022,3.042 17.442,0l87.063,-48.647Zm-70.142,-134.226l-19.992,-38.249c-1.031,-1.97 -3.063,-3.203 -5.277,-3.203c-2.214,0 -4.246,1.233 -5.277,3.203l-87.779,157.313l118.325,-119.064Z" style="fill:#fff;fill-rule:nonzero;"/></g></svg>