<?xml version="1.0" encoding="UTF-8" standalone="no"?>
<!DOCTYPE svg PUBLIC "-//W3C//DTD SVG 1.1//EN" "http://www.w3.org/Graphics/SVG/1.1/DTD/svg11.dtd">
<svg width="100%" height="100%" viewBox="0 0 107 107" version="1.1" xmlns="http://www.w3.org/2000/svg" xmlns:xlink="http://www.w3.org/1999/xlink" xml:space="preserve" xmlns:serif="http://www.serif.com/" style="fill-rule:evenodd;clip-rule:evenodd;stroke-linejoin:round;stroke-miterlimit:2;">
    <g transform="matrix(1.18159,0,0,1.18159,-6.85667,-7.10136)">
        <path d="M84.038,65.464C84.155,65.065 84.276,64.668 84.379,64.259C88.781,46.72 78.037,25.984 59.856,15.066C67.824,25.867 71.346,38.949 68.216,50.39C67.937,51.41 67.601,52.39 67.23,53.342C66.827,53.078 66.32,52.777 65.639,52.402C65.639,52.402 47.553,41.235 27.951,21.484C27.437,20.965 38.404,37.159 50.85,50.308C44.987,47.016 28.646,35.126 18.3,25.658C19.571,27.778 21.083,29.819 22.744,31.784C31.384,42.74 42.65,56.259 56.148,66.639C46.664,72.443 33.263,72.894 19.921,66.645C16.621,65.098 13.518,63.232 10.647,61.112C16.295,70.146 24.994,77.94 35.581,82.491C48.206,87.917 60.761,87.549 70.112,82.58L70.105,82.591C70.137,82.571 70.172,82.55 70.205,82.53C70.625,82.305 71.041,82.073 71.447,81.83C75.964,79.511 84.778,77.223 89.514,86.439C90.68,88.707 93.159,76.687 84.046,65.474C84.043,65.469 84.041,65.467 84.038,65.464Z" style="fill:white;fill-rule:nonzero;"/>
    </g>
</svg>
